<svg width="33" height="34" viewBox="0 0 33 34" fill="none" xmlns="http://www.w3.org/2000/svg">
<path d="M7.73486 4.625C7.45443 4.6249 7.17925 4.70104 6.93875 4.84526C6.69825 4.98949 6.50148 5.19638 6.36949 5.44381L2.24449 13.1782C2.10354 13.4425 2.04234 13.742 2.06834 14.0404C2.09433 14.3388 2.2064 14.6232 2.39092 14.8591L15.2816 31.3591C15.4262 31.5443 15.6112 31.6941 15.8224 31.7971C16.0336 31.9001 16.2655 31.9536 16.5005 31.9536C16.7355 31.9536 16.9674 31.9001 17.1786 31.7971C17.3898 31.6941 17.5747 31.5443 17.7194 31.3591L30.6101 14.8591C30.7943 14.623 30.906 14.3385 30.9316 14.0401C30.9572 13.7417 30.8957 13.4423 30.7544 13.1782L26.6294 5.44381C26.4976 5.19669 26.3012 4.99 26.0611 4.84579C25.8209 4.70159 25.5462 4.62527 25.2661 4.625H7.73486ZM5.91368 12.875L8.66299 7.71875H11.2968L10.0077 12.875H5.91368ZM7.18418 15.9687H10.3687L12.491 22.7606L7.18418 15.9687ZM13.6089 15.9687H19.3921L16.5005 25.2211L13.6089 15.9687ZM22.6323 15.9687H25.8168L20.51 22.7606L22.6344 15.9687H22.6323ZM27.0873 12.875H22.9932L21.7042 7.71875H24.338L27.0873 12.875ZM19.8046 12.875H13.1964L14.4854 7.71875H18.5156L19.8046 12.875Z" fill="white"/>
</svg>
