<svg width="33" height="34" viewBox="0 0 33 34" fill="none" xmlns="http://www.w3.org/2000/svg">
<path d="M16.5 16.5531L14.3481 18.2347C14.228 18.3145 14.1125 18.3159 14.0016 18.2389C13.8907 18.1619 13.8582 18.061 13.904 17.9364L14.718 15.207L12.5757 13.6532C12.4612 13.5735 12.4314 13.4681 12.4864 13.337C12.5414 13.205 12.6312 13.139 12.7559 13.139H15.4206L16.236 10.4261C16.2818 10.3015 16.3698 10.2391 16.5 10.2391C16.6302 10.2391 16.7182 10.3015 16.764 10.4261L17.5794 13.139H20.2359C20.3615 13.139 20.4531 13.205 20.5109 13.337C20.5686 13.469 20.5398 13.5744 20.4242 13.6532L18.2738 15.207L19.0891 17.9364C19.135 18.061 19.1024 18.1619 18.9915 18.2389C18.8797 18.3159 18.7642 18.3145 18.645 18.2347L16.5 16.5531ZM16.5 27.9478L11.0509 29.5758C10.698 29.7013 10.3721 29.6486 10.0733 29.4176C9.77442 29.1866 9.625 28.886 9.625 28.5156V20.9476C8.75417 20.0915 8.07813 19.0886 7.59688 17.9391C7.11563 16.7896 6.875 15.5599 6.875 14.25C6.875 11.5669 7.80863 9.29221 9.67588 7.42588C11.5422 5.55863 13.8169 4.625 16.5 4.625C19.1831 4.625 21.4578 5.55863 23.3241 7.42588C25.1914 9.29221 26.125 11.5669 26.125 14.25C26.125 15.5599 25.8844 16.7896 25.4031 17.9391C24.9219 19.0886 24.2458 20.091 23.375 20.9462V28.5143C23.375 28.8846 23.2256 29.1853 22.9268 29.4163C22.6279 29.6473 22.3025 29.7 21.9505 29.5744L16.5 27.9478ZM16.5 22.5C18.7917 22.5 20.7396 21.6979 22.3438 20.0938C23.9479 18.4896 24.75 16.5417 24.75 14.25C24.75 11.9583 23.9479 10.0104 22.3438 8.40625C20.7396 6.80208 18.7917 6 16.5 6C14.2083 6 12.2604 6.80208 10.6562 8.40625C9.05208 10.0104 8.25 11.9583 8.25 14.25C8.25 16.5417 9.05208 18.4896 10.6562 20.0938C12.2604 21.6979 14.2083 22.5 16.5 22.5ZM11 28.0605L16.5 26.5205L22 28.0605V22.1068C21.2327 22.6705 20.3807 23.1059 19.4439 23.413C18.508 23.721 17.5267 23.875 16.5 23.875C15.4733 23.875 14.492 23.721 13.5561 23.413C12.6193 23.1068 11.7673 22.6714 11 22.1068V28.0605Z" fill="white"/>
</svg>
