<svg width="44" height="44" viewBox="0 0 44 44" fill="none" xmlns="http://www.w3.org/2000/svg">
<path d="M33.8853 30.7396C31.3794 31.3413 28.7635 31.3122 26.2716 30.6548C23.7798 29.9974 21.4899 28.7322 19.607 26.9727C17.7241 25.2131 16.307 23.0141 15.4825 20.5724C14.658 18.1308 14.452 15.5228 14.8828 12.9819C14.8173 13.0452 14.7481 13.1046 14.6756 13.1598C14.1623 13.5503 13.5206 13.6951 12.2373 13.9848L11.0731 14.2488C6.56311 15.2699 4.30811 15.7796 3.77095 17.5048C3.23561 19.2281 4.77195 21.0266 7.84645 24.6218L8.64211 25.5513C9.51478 26.5724 9.95295 27.0839 10.1491 27.7146C10.3453 28.3471 10.2793 29.0291 10.1473 30.3913L10.0263 31.6324C9.56245 36.4303 9.32961 38.8283 10.7339 39.8934C12.1383 40.9604 14.2503 39.9888 18.4706 38.0436L19.5651 37.5413C20.7641 36.9876 21.3636 36.7126 21.9998 36.7126C22.6359 36.7126 23.2354 36.9876 24.4363 37.5413L25.5271 38.0436C29.7493 39.9869 31.8613 40.9586 33.2638 39.8953C34.6699 38.8283 34.4371 36.4303 33.9733 31.6324L33.8853 30.7396Z" fill="white"/>
<path opacity="0.5" d="M16.7809 9.9145L16.1796 10.9925C15.5196 12.1768 15.1896 12.769 14.6763 13.1595C14.7496 13.1045 14.8174 13.0458 14.8834 12.9817C14.4525 15.5227 14.6586 18.1309 15.4831 20.5727C16.3077 23.0146 17.725 25.2138 19.6081 26.9734C21.4913 28.733 23.7814 29.9981 26.2735 30.6553C28.7656 31.3125 31.3818 31.3414 33.8878 30.7393L33.8511 30.391C33.7209 29.0288 33.6549 28.3468 33.8511 27.7143C34.0473 27.0837 34.4836 26.5722 35.3581 25.551L36.1538 24.6215C39.2283 21.0282 40.7646 19.2297 40.2274 17.5045C39.6921 15.7793 37.4371 15.2678 32.9271 14.2485L31.7611 13.9845C30.4796 13.6948 29.8379 13.55 29.3228 13.1595C28.8094 12.769 28.4794 12.1768 27.8194 10.9925L27.2199 9.9145C24.8971 5.74917 23.7366 3.6665 22.0004 3.6665C20.2643 3.6665 19.1038 5.74917 16.7809 9.9145Z" fill="white"/>
</svg>
