<svg width="44" height="44" viewBox="0 0 44 44" fill="none" xmlns="http://www.w3.org/2000/svg">
<path d="M26.1253 39.2332C25.4226 39.936 24.5517 40.2873 23.5128 40.2873C22.4739 40.2873 21.6031 39.936 20.9003 39.2332L4.767 23.0998C4.43089 22.7637 4.16323 22.3665 3.964 21.9082C3.76478 21.4498 3.66578 20.961 3.667 20.4415V7.33317C3.667 6.32484 4.02634 5.46134 4.745 4.74267C5.46367 4.02401 6.32656 3.66528 7.33367 3.66651H20.442C20.9614 3.66651 21.4503 3.76612 21.9087 3.96534C22.367 4.16456 22.7642 4.43162 23.1003 4.76651L39.2337 20.9457C39.9364 21.6485 40.2878 22.512 40.2878 23.5362C40.2878 24.5604 39.9364 25.4233 39.2337 26.1248L26.1253 39.2332ZM11.917 14.6665C12.6809 14.6665 13.3305 14.3988 13.8658 13.8635C14.4012 13.3282 14.6682 12.6792 14.667 11.9165C14.667 11.1526 14.3993 10.503 13.864 9.96767C13.3287 9.43234 12.6797 9.16528 11.917 9.16651C11.1531 9.16651 10.5035 9.43417 9.96817 9.96951C9.43284 10.5048 9.16578 11.1538 9.167 11.9165C9.167 12.6804 9.43467 13.33 9.97 13.8653C10.5053 14.4007 11.1543 14.6677 11.917 14.6665Z" fill="white"/>
</svg>
